<svg fill="none" xmlns="http://www.w3.org/2000/svg" viewBox="0 0 300 42">
  <path d="M21.015 41.49a20.489 20.489 0 110-40.98v9.85a10.646 10.646 0 1010.639 10.652V21h9.851a20.473 20.473 0 01-20.457 20.49h-.033z" fill="#ffffff"/>
  <path d="M34.609 14.3a6.895 6.895 0 100-13.79 6.895 6.895 0 000 13.79z" fill="#ffffff"/>
  <path d="M54.578 36.882V4.478h5.93v27.537h15.124v4.867H54.578zM130.609 14.402h5.608l-8.829 22.48h-5.007l-5.517-14.48-5.377 14.48h-4.96l-8.872-22.48h5.884l5.741 15.638 5.746-15.63h4.137l5.747 15.721 5.699-15.729zM171.719 35.825a9.85 9.85 0 01-4.022-4.091c-.951-1.778-1.426-3.847-1.425-6.207.001-2.36.476-4.421 1.425-6.182a9.875 9.875 0 014.022-4.07c1.732-.95 3.747-1.424 6.046-1.423 2.298 0 4.313.475 6.044 1.424a9.743 9.743 0 013.999 4.07c.935 1.76 1.402 3.821 1.402 6.18 0 2.36-.467 4.43-1.402 6.208a9.718 9.718 0 01-3.999 4.091c-1.731.95-3.746 1.425-6.044 1.424-2.299 0-4.314-.475-6.046-1.424zm10.275-4.867c.98-1.226 1.47-3.034 1.47-5.424 0-2.359-.49-4.16-1.47-5.402s-2.39-1.862-4.229-1.86c-1.839 0-3.257.62-4.253 1.86-.997 1.24-1.495 3.041-1.494 5.402 0 2.39.491 4.198 1.472 5.424.98 1.225 2.39 1.838 4.229 1.838 1.867-.004 3.292-.618 4.275-1.844v.006zM210.724 16.15c1.318 1.532 1.976 3.846 1.976 6.942v13.79h-5.746v-13.47c0-1.746-.329-3.018-.988-3.815-.658-.798-1.692-1.196-3.104-1.195-1.654 0-2.98.521-3.976 1.563-.995 1.042-1.493 2.437-1.493 4.184v12.733h-5.747v-22.48h5.609v3.356a7.773 7.773 0 013.079-2.895c1.288-.675 2.744-1.012 4.368-1.011 2.695 0 4.702.765 6.022 2.297zM235.086 16.15c1.317 1.532 1.976 3.846 1.978 6.942v13.79h-5.746v-13.47c0-1.746-.33-3.018-.989-3.815-.659-.798-1.694-1.196-3.103-1.195-1.655 0-2.98.521-3.976 1.563-.996 1.042-1.494 2.437-1.494 4.184v12.733h-5.746v-22.48h5.607v3.356a7.777 7.777 0 013.081-2.895c1.288-.675 2.743-1.012 4.367-1.011 2.697 0 4.704.765 6.021 2.297zM94.662 16.15c-1.533-1.532-3.877-2.298-7.033-2.298-1.714.018-3.416.28-5.056.78-1.733.509-3.216 1.148-4.45 1.916l3.15 3.153a18.427 18.427 0 012.198-.862 12.348 12.348 0 013.744-.62c1.532 0 2.628.337 3.286 1.01.658.675.988 1.778.989 3.31v1.057H90.34c-3.338 0-5.958.215-7.86.644-1.903.43-3.274 1.119-4.115 2.068-.843.95-1.264 2.253-1.264 3.908a6.384 6.384 0 001.057 3.586 7.26 7.26 0 002.896 2.528 9.013 9.013 0 004.092.92c1.471 0 2.766-.338 3.884-1.012a5.998 5.998 0 002.459-2.803v3.447h5.47V23.225c0-3.185-.765-5.543-2.298-7.076zM91.49 27.595c0 1.625-.483 2.95-1.448 3.976-.965 1.027-2.214 1.54-3.746 1.54-1.043 0-1.9-.314-2.575-.942a3.151 3.151 0 01-1.01-2.408c0-.796.245-1.424.735-1.885.49-.46 1.303-.782 2.436-.965 1.134-.185 2.728-.278 4.78-.278h.835l-.007.962z" fill="#ffffff"/>
  <path d="M162.99 30.131a14.739 14.739 0 01-2.964 1.53 13.074 13.074 0 01-4.598.806c-3.126 0-5.539-1.012-7.24-3.035-1.7-2.023-2.551-4.95-2.551-8.78 0-3.801.85-6.713 2.551-8.735 1.702-2.022 4.115-3.034 7.24-3.034a13.097 13.097 0 014.598.805c1.046.398 2.042.914 2.971 1.538l3.337-3.338c-1.311-1.205-2.923-2.145-4.838-2.819a18.54 18.54 0 00-6.155-1.01c-3.188 0-5.969.682-8.344 2.046a13.686 13.686 0 00-5.47 5.793c-1.271 2.497-1.907 5.418-1.908 8.761-.001 3.344.635 6.27 1.908 8.78a13.647 13.647 0 005.47 5.81c2.375 1.364 5.156 2.046 8.344 2.046a18.539 18.539 0 006.159-1.011c1.911-.667 3.522-1.605 4.833-2.813l-3.343-3.34zM257.026 31.408a10.62 10.62 0 01-5.371 1.428c-1.992 0-3.522-.505-4.589-1.517-1.067-1.011-1.696-2.559-1.886-4.642h15.298v-1.61c0-3.493-.896-6.236-2.689-8.228-1.792-1.992-4.233-2.988-7.324-2.987-2.116 0-4.008.49-5.677 1.47a10.04 10.04 0 00-3.886 4.137c-.919 1.777-1.379 3.817-1.378 6.12 0 3.615 1.066 6.466 3.199 8.55 2.132 2.086 5.036 3.128 8.711 3.126a15.082 15.082 0 004.758-.782c1.552-.511 2.844-1.187 3.877-2.025l-3.043-3.04zm-10.128-12.04c.934-.98 2.168-1.471 3.7-1.472 1.533-.001 2.728.482 3.585 1.45.859.964 1.319 2.381 1.38 4.25H245.18c.21-1.838.782-3.248 1.718-4.229zM277.194 32.147a8.87 8.87 0 01-3.149.598c-1.992 0-3.54-.621-4.643-1.862-1.104-1.242-1.655-3.012-1.655-5.31 0-2.328.551-4.113 1.655-5.355 1.103-1.241 2.651-1.861 4.643-1.86a8.905 8.905 0 013.149.598c.535.202 1.052.448 1.546.735l3.075-3.075c-.914-.834-2.119-1.502-3.616-2.005a14.645 14.645 0 00-4.666-.758c-2.328 0-4.382.49-6.159 1.47-1.75.953-3.18 2.4-4.114 4.161-.966 1.792-1.449 3.853-1.449 6.183 0 2.33.46 4.37 1.38 6.12a9.636 9.636 0 003.976 4.045c1.731.95 3.777 1.425 6.137 1.424 1.624.006 3.238-.25 4.78-.758 1.489-.49 2.717-1.162 3.685-2.016l-3.059-3.053c-.485.28-.992.52-1.516.718zM298.461 32.84c-.582.058-1.143.087-1.685.088-2.789 0-4.184-1.501-4.183-4.504v-9.7h5.868v-4.322h-5.868V7.691h-5.746v6.711h-4.321v4.321h4.321v9.787c0 2.88.751 5.049 2.253 6.504 1.502 1.456 3.831 2.184 6.987 2.184.721 0 1.514-.04 2.374-.124v-4.235z" fill="#ffffff"/>
</svg>
