<svg xmlns="http://www.w3.org/2000/svg" width="194" height="60" viewBox="0 0 194 60">
  <path fill="#EA8A41" fill-rule="evenodd" d="M2,50 L2,10.016 L41.9984,10.016 L41.9984,50 L2,50 Z M19.0624,27.182 L32.1132,29.1244 L34.1688,40.0784 L36.0796,24.252 L22.3464,17.9988 L19.0624,27.182 Z M19.0624,27.1824 L18.0664,29.9708 L6.2696,42.0224 L22.282,34.5908 L25.05,29.318 L19.0624,27.1824 Z M54.2084,10 L61.9632,10 L61.9632,41.9992 L79.7928,41.9992 L83.114,50 L54.2084,50 L54.2084,10 Z M179.8284,33.9964 L168.1948,33.9964 L168.0556,50 L160.3008,50 L160.3008,10 C166.7628,10 173.226,10 179.6892,10 C195.63,10 195.8272,33.9964 179.8284,33.9964 Z M115.5084,17.9988 L92.4192,17.9988 L92.4192,25.9936 L107.818,25.9936 L107.818,33.9964 L92.4192,33.9964 L92.4192,41.9992 L115.5084,41.9992 L115.5084,50 L84.7224,50 L84.7224,10 L115.5084,10 L115.5084,17.9988 Z M150.3224,50 L147.0084,41.9992 L128.8808,41.9992 L125.568,50 L117.1168,50 L133.6824,10 L142.208,10 L158.774,50 L150.3224,50 Z M132.1956,33.9964 L143.6944,33.9964 L137.9452,20.114 L132.1956,33.9964 Z M168.1948,26.028 L179.8284,25.9936 C185.5604,25.9936 185.3624,17.9988 179.6892,17.9988 L168.18,17.9988 L168.1948,26.028 Z"/>
</svg>
